<?xml version="1.0" encoding="utf-8"?>
<!-- Generator: Adobe Illustrator 22.0.1, SVG Export Plug-In . SVG Version: 6.00 Build 0)  -->
<svg version="1.1" id="Capa_1" xmlns="http://www.w3.org/2000/svg" xmlns:xlink="http://www.w3.org/1999/xlink" x="0px" y="0px"
	 viewBox="0 0 1642 512" style="enable-background:new 0 0 1642 512;" xml:space="preserve">
<style type="text/css">
	.st0{fill:none;}
	.st1{fill:#E3C83A;}
	.st2{fill:#0052B4;}
	.st3{fill:#D80027;}
</style>
<g>
	<g>
		<g>
			<circle class="st0" cx="160.4" cy="133.2" r="65.7"/>
		</g>
		<g>
			<path class="st1" d="M112.9,178.5c-11.3-11.8-18.2-27.8-18.2-45.3c0-36.2,29.5-65.7,65.7-65.7c21.4,0,40.5,10.3,52.5,26.3
				c14.4-16.4,27.6-34.3,38.8-53.8C228.1,17,195.9,2.7,160.4,2.7c-72,0-130.5,58.5-130.5,130.5c0,24.8,9,52.8,22.1,80.5
				c17.1-8.8,35.5-19,54.1-30.8C108.4,181.5,110.7,180,112.9,178.5z"/>
		</g>
		<g>
			<path class="st2" d="M290.8,128.1c-1.3-33.4-15.2-63.6-37.1-86c-11.3,19.5-24.6,37.5-39.1,54c7.3,10.6,11.5,23.4,11.5,37.1
				c0,36.2-29.5,65.7-65.7,65.7c-17.7,0-33.7-7-45.5-18.4c-2.5,1.6-4.9,3.2-7.3,4.7c-18.7,11.8-37.2,22.1-54.4,30.9
				c13.1,27.1,30,53.7,46.1,76.5c16-8.3,32.9-17.8,50.1-28.7C197.4,233.6,254,188.3,290.8,128.1z"/>
		</g>
		<g>
			<path class="st3" d="M150.8,266.3c-17.1,10.8-34,20.4-49.9,28.6c13.4,18.9,26.2,35,35.5,46.4c28.7-20.5,61.4-44.5,95.3-71.1
				c3.5-2.8,7-5.5,10.4-8.3c25.9-41.4,48.8-89.1,48.8-128.6c0,0,0-0.1,0-0.1C253.9,192,198.2,236.3,150.8,266.3z"/>
		</g>
	</g>
	<g>
		<g>
			<path d="M362.4,118.8c-0.3-1.1-0.7-2.2-1-3.3c-0.4-1-1-2-1.5-3c-0.2-0.5-0.5-1-0.7-1.4c-0.3-0.4-0.6-0.9-0.9-1.3
				c-0.6-0.8-1.2-1.6-1.8-2.4c-1.4-1.4-2.7-2.7-4-3.9c-1.4-1-2.8-2-4.1-2.9c-2.8-1.5-5.2-3-7.5-3.8c-2.3-0.9-4.2-1.7-5.8-2.1
				c-3.2-0.9-4.8-1.4-4.8-1.4s1.6,0.6,4.7,1.8c1.6,0.5,3.4,1.4,5.6,2.5c2.2,0.9,4.5,2.5,7.1,4.2c1.2,1,2.5,2,3.8,3.1
				c1.2,1.2,2.4,2.5,3.6,3.9c0.5,0.8,1,1.6,1.5,2.4c0.3,0.4,0.5,0.8,0.8,1.2l0.6,1.4c0.4,0.9,0.9,1.8,1.2,2.8c0.2,1,0.5,2,0.8,3
				c1.7,8.4-0.9,18.4-5.8,28.1c-4.8,9.9-12.1,19.7-20.4,29.7c-8.4,10-18.1,20.1-28.7,30.3c-18.5,17.8-39.8,35.9-62.7,54.2
				c-3.4,2.8-6.9,5.5-10.4,8.3c-33.9,26.6-66.5,50.6-95.3,71.1c-16.9,12.1-32.5,23-46.1,32.5c-36.9,25.6-60.1,41-60.1,41
				s24.3-13.5,62.5-37.3c14.2-8.9,30.5-19.3,48-31c26.5-17.6,56-38.3,86.4-61.7c3.3-2.6,6.6-5.1,10-7.8c27-21.3,51.8-42.8,72.9-64.1
				c10.5-10.6,20-21.2,28.2-31.8c8.1-10.6,15.1-21.1,19.7-31.6c2.4-5.2,4-10.6,4.9-15.7C363.7,128.5,363.4,123.4,362.4,118.8z"/>
		</g>
		<g>
			<g>
				<path d="M343.6,58.1c0,0,2.3-0.4,6.6-1c4.3-0.6,10.6-1.8,18.9-2.7c8.2-1,18.3-2,30.1-2.4c3-0.1,6-0.1,9.2-0.2
					c3.2-0.1,6.4,0.1,9.8,0.2c3.4,0.1,6.8,0.2,10.3,0.6c3.5,0.4,7.2,0.5,10.9,1.2c14.8,2.1,31.2,6.3,46.5,16.1
					c7.5,5.1,14.4,11.7,19.8,19.9c5.4,8.1,9.1,17.7,10.8,27.7c3.5,20.1,1,41.5-4.3,62.4c-5.3,21-13.5,41.8-23,62.5
					c-19.3,41.3-42.4,78-64.4,110.4c-22.2,32.4-43.6,60.5-62.1,83.6c-18.5,23.1-34.1,41.3-45.1,53.8c-10.9,12.4-17.2,19.1-17.2,19.1
					s5.9-7,16.2-20c10.3-13,25.1-31.8,42.7-55.6c17.6-23.8,38.1-52.4,59.4-85c21.2-32.7,43.6-69.4,62.6-110
					c9.4-20.3,17.5-40.7,22.8-60.9c5.4-20.2,8-40.5,5.1-59.1c-1.4-9.3-4.6-18-9.2-25.4c-4.6-7.5-10.8-13.6-17.5-18.5
					c-13.9-9.4-29.5-14.1-43.8-16.7c-3.6-0.8-7.2-1-10.6-1.6c-3.4-0.5-6.8-0.8-10.1-1c-3.3-0.2-6.5-0.6-9.6-0.6
					c-3.1-0.1-6.1-0.1-9.1-0.2c-11.7-0.1-21.8,0.4-30.1,1c-8.3,0.4-14.6,1.3-19,1.7C345.9,57.9,343.6,58.1,343.6,58.1z"/>
				<path d="M300.7,509.6L300,509c0.1-0.1,6-7.2,16.2-20c14.6-18.3,28.5-36.5,42.7-55.6c22.1-29.8,41.5-57.6,59.4-85
					c18.6-28.7,42.5-67.1,62.6-110c10.8-23.4,18.1-42.8,22.8-60.8c6-22.3,7.7-42.1,5.1-58.9c-1.4-9.1-4.5-17.8-9.2-25.2
					c-4.3-6.9-10.1-13.1-17.4-18.4c-11.9-8.1-26.1-13.5-43.6-16.6c-2.3-0.5-4.6-0.8-6.8-1.1c-1.3-0.2-2.5-0.3-3.7-0.5
					c-3.3-0.5-6.6-0.7-9.7-1l-0.4,0c-1.2-0.1-2.4-0.2-3.5-0.3c-2.1-0.2-4.1-0.3-6.1-0.3l-9.1-0.2c-10.4-0.1-20.5,0.3-30,1
					c-5.8,0.3-10.6,0.8-14.5,1.2c-1.7,0.2-3.1,0.3-4.4,0.4l-6.6,0.7l-0.1-0.9l6.6-1c1.2-0.2,2.6-0.4,4.1-0.6c3.9-0.6,8.9-1.4,14.8-2
					c9.5-1.2,19.7-2,30.2-2.4l9.2-0.2c2.1-0.1,4.1,0,6.3,0.1c1.2,0,2.3,0.1,3.5,0.1l0.3,0c3.3,0.1,6.7,0.2,10.1,0.6
					c1.2,0.1,2.5,0.2,3.7,0.4c2.3,0.2,4.8,0.4,7.2,0.8c18.4,2.6,33.7,7.9,46.6,16.1c8.2,5.6,14.9,12.3,19.9,20
					c5.4,8.1,9.1,17.8,10.9,27.9c3.2,18.3,1.8,38.7-4.3,62.6c-4.8,18.9-12.1,38.8-23,62.6c-20.8,44.3-45.3,82.3-64.4,110.5
					c-18.8,27.6-39.2,54.9-62.1,83.7c-14.9,18.6-30,36.7-45.1,53.8C307.1,502.8,300.7,509.5,300.7,509.6z M397,54.3
					c0.7,0,1.5,0,2.2,0l9.1,0.2c2,0,4,0.2,6.1,0.3c1.2,0.1,2.3,0.2,3.5,0.3l0.4,0c3.2,0.2,6.5,0.4,9.8,1c1.2,0.2,2.5,0.3,3.7,0.5
					c2.3,0.3,4.6,0.6,6.9,1.1c17.6,3.1,32,8.6,44,16.7c7.4,5.4,13.3,11.7,17.7,18.7c4.7,7.5,7.9,16.3,9.3,25.6
					c2.6,16.9,0.9,36.8-5.2,59.3c-4.8,18.1-12,37.5-22.9,61c-20.1,42.9-44,81.4-62.6,110.1c-17.9,27.4-37.3,55.2-59.5,85.1
					c-14.1,19.1-28.1,37.2-42.7,55.6c-2.2,2.8-4.3,5.3-6.1,7.6c1.9-2.1,4.1-4.6,6.4-7.3c15-17.1,30.2-35.2,45.1-53.8
					c23-28.7,43.3-56.1,62.1-83.6c19.1-28.1,43.6-66.1,64.4-110.4c10.9-23.7,18.2-43.5,23-62.4c6.1-23.8,7.5-44.1,4.3-62.2
					c-1.7-10-5.4-19.5-10.7-27.6c-4.9-7.5-11.6-14.2-19.7-19.7c-12.8-8.2-28-13.4-46.3-16c-2.4-0.4-4.8-0.6-7.1-0.8
					c-1.3-0.1-2.5-0.2-3.8-0.4c-3.4-0.4-6.8-0.5-10-0.6l-0.3,0c-1.2,0-2.4-0.1-3.5-0.1c-2.2-0.1-4.2-0.2-6.2-0.1l-9.2,0.2
					c-10.5,0.4-20.6,1.2-30.1,2.4c-3.6,0.4-6.8,0.8-9.6,1.2c2.9-0.3,6.1-0.5,9.7-0.7C378,54.6,387.3,54.3,397,54.3z"/>
			</g>
		</g>
		<g>
			<g>
				<path class="st1" d="M376,77c0,0,1.7,0.1,5,0.3c3.3,0.1,8.1,0.7,14.3,1.7c6.1,1.2,13.7,2.9,21.8,6.9c2,1.1,4.2,2,6.1,3.6
					c1,0.7,2,1.4,3,2.2c1,0.8,1.9,1.7,2.8,2.6l1.4,1.4c0.5,0.5,0.8,1,1.3,1.5c0.8,1.1,1.7,2.1,2.5,3.3c0.7,1.2,1.4,2.4,2.1,3.7
					c0.8,1.2,1.2,2.6,1.8,4c2.1,5.5,3.3,11.6,3.1,18c-0.1,6.3-1,12.9-2.7,19.3c-3.3,13-9.1,26.1-16.1,39.3
					c-14.2,26.2-33.6,52.5-55.5,78.7c-21.9,26.1-44.4,49.6-65.3,70.3c-20.9,20.7-40.5,38.7-57.1,53.5c-33.3,29.6-55,46.6-55,46.6
					s20.3-18.6,52-49.7c15.9-15.6,34.6-34.3,54.8-55.5c20.3-21.2,42.1-44.9,63.9-70.8c21.6-25.9,41.2-51.5,55.7-76.7
					c7.2-12.6,13.2-25,16.8-37.2c3.6-12.1,4.7-24.3,1.3-34.3c-0.5-1.2-0.7-2.5-1.4-3.6c-0.6-1.1-1.2-2.3-1.7-3.4
					c-0.7-1.1-1.4-2-2.1-3c-0.4-0.5-0.7-1-1.1-1.5l-1.2-1.3c-0.8-0.9-1.6-1.8-2.5-2.5c-0.9-0.7-1.8-1.5-2.7-2.2
					c-1.7-1.5-3.7-2.5-5.5-3.7c-7.5-4.3-14.9-6.4-20.8-8c-6-1.4-10.8-2.2-14-2.6C377.7,77.2,376,77,376,77z"/>
			</g>
		</g>
	</g>
</g>
<g>
	<path d="M766.6,231.9l-33.4-46.8c-4.9,0.7-9.5,1-13.6,1h-40v45.8h-10.2v-140h50.2c17.6,0,31.4,4.2,41.4,12.5
		c10,8.3,15,19.9,15,34.7c0,11.1-2.8,20.4-8.5,27.9c-5.7,7.5-13.8,12.8-24.3,15.9l35,49H766.6z M719.6,177.1
		c14.9,0,26.3-3.3,34.2-9.9c7.9-6.6,11.8-16,11.8-28.1c0-12.1-3.9-21.5-11.8-28.1c-7.9-6.6-19.3-9.9-34.2-9.9h-40v76H719.6z"/>
	<path d="M901.6,127.5v104.4H892v-22.4c-3.5,7.3-8.6,13-15.4,17.1c-6.8,4.1-14.8,6.1-24,6.1c-13.6,0-24.3-3.8-32-11.4
		c-7.7-7.6-11.6-18.5-11.6-32.8v-61h10v60.2c0,11.7,3,20.7,9,26.8c6,6.1,14.5,9.2,25.4,9.2c11.7,0,21-3.7,27.9-11
		c6.9-7.3,10.3-17.2,10.3-29.6v-55.6H901.6z"/>
	<path d="M995.8,225.3c-2.5,2.4-5.7,4.2-9.5,5.5s-7.8,1.9-11.9,1.9c-9.1,0-16.1-2.5-21-7.5c-4.9-5-7.4-12-7.4-20.9v-68.2h-19.2v-8.6
		H946v-22.8h10v22.8h33.2v8.6H956v67.2c0,6.8,1.6,12,4.9,15.5c3.3,3.5,8.1,5.3,14.5,5.3c6.5,0,11.9-1.9,16.2-5.8L995.8,225.3z"/>
	<path d="M1088.6,136.6c6.9,6.6,10.4,16.3,10.4,29.1v66.2h-9.6v-18.6c-3.3,6.1-8.2,10.9-14.6,14.3c-6.4,3.4-14.1,5.1-23,5.1
		c-11.6,0-20.8-2.7-27.5-8.2c-6.7-5.5-10.1-12.7-10.1-21.6c0-8.7,3.1-15.7,9.3-21.1c6.2-5.4,16.1-8.1,29.7-8.1h35.8v-8.4
		c0-9.7-2.6-17.1-7.9-22.2c-5.3-5.1-13-7.6-23.1-7.6c-6.9,0-13.6,1.2-19.9,3.6c-6.3,2.4-11.7,5.6-16.1,9.6l-5-7.2
		c5.2-4.7,11.5-8.3,18.8-10.9c7.3-2.6,15-3.9,23-3.9C1071.7,126.7,1081.7,130,1088.6,136.6z M1075.3,218.5c6.1-4,10.6-9.8,13.7-17.4
		v-19.6h-35.6c-10.3,0-17.7,1.9-22.3,5.6c-4.6,3.7-6.9,8.9-6.9,15.4c0,6.8,2.5,12.2,7.6,16.1c5.1,3.9,12.2,5.9,21.4,5.9
		C1061.9,224.5,1069.2,222.5,1075.3,218.5z"/>
	<path d="M1142.6,228.9c-7.6-2.5-13.5-5.7-17.8-9.6l4.6-8c4.3,3.6,9.8,6.6,16.5,9c6.7,2.4,13.8,3.6,21.1,3.6
		c10.5,0,18.3-1.7,23.3-5.2c5-3.5,7.5-8.3,7.5-14.4c0-4.4-1.4-7.9-4.1-10.4c-2.7-2.5-6.1-4.4-10.1-5.6c-4-1.2-9.5-2.5-16.6-3.8
		c-8.3-1.5-14.9-3.1-20-4.8c-5.1-1.7-9.4-4.5-13-8.4c-3.6-3.9-5.4-9.2-5.4-16c0-8.3,3.4-15.1,10.3-20.5c6.9-5.4,16.6-8.1,29.3-8.1
		c6.7,0,13.3,0.9,19.8,2.8c6.5,1.9,11.9,4.3,16,7.4l-4.6,8c-4.3-3.1-9.1-5.4-14.6-7c-5.5-1.6-11.1-2.4-16.8-2.4
		c-9.7,0-17.1,1.8-22,5.4c-4.9,3.6-7.4,8.3-7.4,14.2c0,4.7,1.4,8.3,4.2,10.9s6.2,4.5,10.3,5.8c4.1,1.3,9.8,2.6,17.1,4.1
		c8.1,1.5,14.7,3,19.7,4.7c5,1.7,9.2,4.4,12.7,8.1c3.5,3.7,5.2,8.9,5.2,15.4c0,8.7-3.6,15.6-10.8,20.8s-17.3,7.8-30.4,7.8
		C1158.2,232.7,1150.2,231.4,1142.6,228.9z"/>
	<path d="M1366,133.5c7.9,4.5,14,10.8,18.5,18.8c4.5,8,6.7,17.1,6.7,27.4c0,10.3-2.2,19.4-6.7,27.5c-4.5,8.1-10.6,14.3-18.5,18.8
		c-7.9,4.5-16.7,6.7-26.4,6.7c-9.2,0-17.5-2.2-25-6.5c-7.5-4.3-13.3-10.4-17.4-18.1v62.6h-10V127.5h9.6v24.6
		c4.1-8,10-14.2,17.5-18.7c7.5-4.5,16-6.7,25.3-6.7C1349.3,126.7,1358.1,129,1366,133.5z M1360.6,218.1c6.4-3.7,11.4-8.9,15.1-15.6
		c3.7-6.7,5.5-14.3,5.5-22.8c0-8.5-1.8-16.1-5.5-22.8c-3.7-6.7-8.7-11.9-15.1-15.6c-6.4-3.7-13.6-5.6-21.6-5.6s-15.2,1.9-21.5,5.6
		c-6.3,3.7-11.3,8.9-15,15.6c-3.7,6.7-5.5,14.3-5.5,22.8c0,8.5,1.8,16.1,5.5,22.8c3.7,6.7,8.7,11.9,15,15.6
		c6.3,3.7,13.5,5.6,21.5,5.6S1354.2,221.8,1360.6,218.1z"/>
	<path d="M1436.3,225.9c-7.9-4.5-14.2-10.8-18.7-18.9c-4.5-8.1-6.8-17.2-6.8-27.3c0-10.1,2.3-19.2,6.8-27.3
		c4.5-8.1,10.8-14.4,18.7-18.9c7.9-4.5,16.8-6.8,26.7-6.8c9.9,0,18.8,2.3,26.7,6.8c7.9,4.5,14.2,10.8,18.7,18.9
		c4.5,8.1,6.8,17.2,6.8,27.3c0,10.1-2.3,19.2-6.8,27.3c-4.5,8.1-10.8,14.4-18.7,18.9c-7.9,4.5-16.8,6.8-26.7,6.8
		C1453.1,232.7,1444.2,230.4,1436.3,225.9z M1484.5,218.1c6.3-3.7,11.3-8.9,15-15.6c3.7-6.7,5.5-14.3,5.5-22.8
		c0-8.5-1.8-16.1-5.5-22.8c-3.7-6.7-8.7-11.9-15-15.6c-6.3-3.7-13.5-5.6-21.5-5.6s-15.2,1.9-21.5,5.6c-6.3,3.7-11.3,8.9-15,15.6
		c-3.7,6.7-5.5,14.3-5.5,22.8c0,8.5,1.8,16.1,5.5,22.8c3.7,6.7,8.7,11.9,15,15.6c6.3,3.7,13.5,5.6,21.5,5.6
		S1478.2,221.8,1484.5,218.1z"/>
	<path d="M1570.8,132.8c6.8-4.1,15.1-6.1,24.8-6.1v9.8l-2.4-0.2c-11.6,0-20.7,3.6-27.2,10.9c-6.5,7.3-9.8,17.4-9.8,30.3v54.4h-10
		V127.5h9.6v22.8C1559,142.7,1564,136.9,1570.8,132.8z"/>
	<path d="M689.9,418c-11.5-6.2-20.6-14.8-27.2-25.8c-6.6-11-9.9-23.4-9.9-37.3c0-13.9,3.3-26.3,9.9-37.3c6.6-11,15.7-19.6,27.2-25.8
		c11.5-6.2,24.5-9.3,38.9-9.3c12.1,0,23.1,2.1,32.9,6.4c9.8,4.3,18,10.4,24.7,18.4l-20.8,19.2c-9.5-10.9-21.2-16.4-35.2-16.4
		c-8.7,0-16.4,1.9-23.2,5.7c-6.8,3.8-12.1,9.1-15.9,15.9c-3.8,6.8-5.7,14.5-5.7,23.2c0,8.7,1.9,16.4,5.7,23.2s9.1,12.1,15.9,15.9
		c6.8,3.8,14.5,5.7,23.2,5.7c14,0,25.7-5.5,35.2-16.6l20.8,19.2c-6.7,8.1-14.9,14.3-24.8,18.6c-9.9,4.3-20.9,6.4-33,6.4
		C714.3,427.3,701.4,424.2,689.9,418z"/>
	<path d="M822.9,419.4c-9-4.7-16-11.3-21.1-19.7c-5.1-8.4-7.6-17.9-7.6-28.6c0-10.7,2.5-20.2,7.6-28.6c5.1-8.4,12.1-15,21.1-19.7
		c9-4.7,19.2-7.1,30.5-7.1c11.3,0,21.5,2.4,30.4,7.1c8.9,4.7,15.9,11.3,21,19.7c5.1,8.4,7.6,17.9,7.6,28.6c0,10.7-2.5,20.2-7.6,28.6
		c-5.1,8.4-12.1,15-21,19.7c-8.9,4.7-19.1,7.1-30.4,7.1C842.1,426.5,831.9,424.1,822.9,419.4z M873.1,392.8
		c5.1-5.4,7.7-12.6,7.7-21.7c0-9.1-2.6-16.3-7.7-21.7c-5.1-5.4-11.7-8.1-19.7-8.1s-14.6,2.7-19.8,8.1s-7.8,12.6-7.8,21.7
		c0,9.1,2.6,16.3,7.8,21.7c5.2,5.4,11.8,8.1,19.8,8.1S868,398.2,873.1,392.8z"/>
	<path d="M933.2,276.5h31.2v148.4h-31.2V276.5z"/>
	<path d="M1014.1,419.4c-9-4.7-16-11.3-21.1-19.7c-5.1-8.4-7.6-17.9-7.6-28.6c0-10.7,2.5-20.2,7.6-28.6c5.1-8.4,12.1-15,21.1-19.7
		c9-4.7,19.2-7.1,30.5-7.1c11.3,0,21.5,2.4,30.4,7.1c8.9,4.7,15.9,11.3,21,19.7c5.1,8.4,7.6,17.9,7.6,28.6c0,10.7-2.5,20.2-7.6,28.6
		c-5.1,8.4-12.1,15-21,19.7c-8.9,4.7-19.1,7.1-30.4,7.1C1033.3,426.5,1023.1,424.1,1014.1,419.4z M1064.3,392.8
		c5.1-5.4,7.7-12.6,7.7-21.7c0-9.1-2.6-16.3-7.7-21.7c-5.1-5.4-11.7-8.1-19.7-8.1s-14.6,2.7-19.8,8.1s-7.8,12.6-7.8,21.7
		c0,9.1,2.6,16.3,7.8,21.7c5.2,5.4,11.8,8.1,19.8,8.1S1059.2,398.2,1064.3,392.8z"/>
	<path d="M1294.3,327.6c7.9,7.9,11.9,19.8,11.9,35.7v61.6H1275v-56.8c0-8.5-1.8-14.9-5.3-19.1c-3.5-4.2-8.6-6.3-15.1-6.3
		c-7.3,0-13.1,2.4-17.4,7.1c-4.3,4.7-6.4,11.8-6.4,21.1v54h-31.2v-56.8c0-16.9-6.8-25.4-20.4-25.4c-7.2,0-12.9,2.4-17.2,7.1
		c-4.3,4.7-6.4,11.8-6.4,21.1v54h-31.2V317.3h29.8v12.4c4-4.5,8.9-8,14.7-10.4c5.8-2.4,12.2-3.6,19.1-3.6c7.6,0,14.5,1.5,20.6,4.5
		c6.1,3,11.1,7.4,14.8,13.1c4.4-5.6,10-9.9,16.7-13c6.7-3.1,14.1-4.6,22.1-4.6C1275.7,315.7,1286.4,319.7,1294.3,327.6z"/>
	<path d="M1425.1,322.6c8.2,4.6,14.6,11.1,19.3,19.4c4.7,8.3,7,18,7,29.1c0,11.1-2.3,20.8-7,29.1c-4.7,8.3-11.1,14.8-19.3,19.4
		c-8.2,4.6-17.3,6.9-27.3,6.9c-14.8,0-26.1-4.7-33.8-14v12.4h-29.8V276.5h31.2v52.2c7.9-8.7,18.7-13,32.4-13
		C1407.8,315.7,1416.9,318,1425.1,322.6z M1412.1,392.8c5.1-5.4,7.7-12.6,7.7-21.7c0-9.1-2.6-16.3-7.7-21.7
		c-5.1-5.4-11.7-8.1-19.7-8.1s-14.6,2.7-19.7,8.1c-5.1,5.4-7.7,12.6-7.7,21.7c0,9.1,2.6,16.3,7.7,21.7c5.1,5.4,11.7,8.1,19.7,8.1
		S1407,398.2,1412.1,392.8z"/>
	<path d="M1473.8,297.3c-3.6-3.3-5.4-7.5-5.4-12.4c0-4.9,1.8-9.1,5.4-12.4c3.6-3.3,8.3-5,14-5c5.7,0,10.4,1.6,14,4.8
		c3.6,3.2,5.4,7.2,5.4,12c0,5.2-1.8,9.5-5.4,12.9s-8.3,5.1-14,5.1C1482.1,302.3,1477.4,300.6,1473.8,297.3z M1472.2,317.3h31.2
		v107.6h-31.2V317.3z"/>
	<path d="M1614.2,327.6c8.9,7.9,13.4,19.9,13.4,35.9v61.4h-29.2v-13.4c-5.9,10-16.8,15-32.8,15c-8.3,0-15.4-1.4-21.5-4.2
		c-6.1-2.8-10.7-6.7-13.9-11.6c-3.2-4.9-4.8-10.5-4.8-16.8c0-10,3.8-17.9,11.3-23.6c7.5-5.7,19.2-8.6,34.9-8.6h24.8
		c0-6.8-2.1-12-6.2-15.7c-4.1-3.7-10.3-5.5-18.6-5.5c-5.7,0-11.4,0.9-16.9,2.7c-5.5,1.8-10.2,4.2-14.1,7.3l-11.2-21.8
		c5.9-4.1,12.9-7.3,21.1-9.6c8.2-2.3,16.6-3.4,25.3-3.4C1592.5,315.7,1605.3,319.7,1614.2,327.6z M1587.6,401.8
		c4.1-2.5,7.1-6.1,8.8-10.9v-11H1575c-12.8,0-19.2,4.2-19.2,12.6c0,4,1.6,7.2,4.7,9.5c3.1,2.3,7.4,3.5,12.9,3.5
		C1578.7,405.5,1583.5,404.3,1587.6,401.8z"/>
</g>
</svg>
